PathFileType	4	(X/Y/Z)	s04c0102.trc
DataRate	CameraRate	NumFrames	NumMarkers	Units	OrigDataRate	OrigDataStartFrame	OrigNumFrames
200	200	6	50	mm	200	1500	2000
Frame#	Time	racr			lacr			c7			jug			rlel			rdr			llel			ldr			s2			lic			ric			lasi			rasi			rpsi			lpsi			rgt			lgt			rth1			rth2			rth3			rth4			rlfc			rmfc			rsh1			rsh2			rsh3			rsh4			rlmal			rmmal			rcal			rtoe			rmt5			lth1			lth2			lth4			lth3			llfc			lmfc			lsh1			lsh2			lsh3			lsh4			llmal			lmmal			lcal			ltoe			lmt5			SBIKE			LBIKE			RBIKE			
		X1	Y1	Z1	X2	Y2	Z2	X3	Y3	Z3	X4	Y4	Z4	X5	Y5	Z5	X6	Y6	Z6	X7	Y7	Z7	X8	Y8	Z8	X9	Y9	Z9	X10	Y10	Z10	X11	Y11	Z11	X12	Y12	Z12	X13	Y13	Z13	X14	Y14	Z14	X15	Y15	Z15	X16	Y16	Z16	X17	Y17	Z17	X18	Y18	Z18	X19	Y19	Z19	X20	Y20	Z20	X21	Y21	Z21	X22	Y22	Z22	X23	Y23	Z23	X24	Y24	Z24	X25	Y25	Z25	X26	Y26	Z26	X27	Y27	Z27	X28	Y28	Z28	X29	Y29	Z29	X30	Y30	Z30	X31	Y31	Z31	X32	Y32	Z32	X33	Y33	Z33	X34	Y34	Z34	X35	Y35	Z35	X36	Y36	Z36	X37	Y37	Z37	X38	Y38	Z38	X39	Y39	Z39	X40	Y40	Z40	X41	Y41	Z41	X42	Y42	Z42	X43	Y43	Z43	X44	Y44	Z44	X45	Y45	Z45	X46	Y46	Z46	X47	Y47	Z47	X48	Y48	Z48	X49	Y49	Z49	X50	Y50	Z50	
1500	7.5000	507.758701	1328.187985	-134.952385	533.360156	1303.508467	-392.999087	494.144723	1375.997606	-272.573433	458.136969	1219.999708	-277.035453	443.070806	1052.444756	17.719513	680.421878	926.186903	-100.458141	457.686081	1066.130094	-564.466470	681.524143	911.569984	-491.962925	-74.957736	1174.962746	-304.558455	86.627245	1177.060002	-457.660026	63.707216	1201.448586	-139.267833	124.028612	1131.507354	-408.605484	108.965007	1181.565050	-127.094241	-54.607996	1225.652209	-265.497559	-47.093949	1221.609762	-341.795959	29.463835	1156.945435	-117.574362	40.121703	1076.482607	-479.436385	167.323480	1074.872809	-109.818095	253.408280	1056.817032	-121.362017	318.858572	1003.106103	-123.115072	265.516409	1086.782182	-141.267129	436.790624	919.177392	-150.114855	417.629697	892.907673	-261.007637	386.665337	809.968729	-120.938108	372.466091	719.813587	-128.852517	314.896807	655.329544	-130.501027	401.768243	708.848504	-151.186338	263.710070	509.561533	-128.499206	282.962558	513.854012	-214.155016	190.242076	479.000748	-164.023376	488.408776	440.827447	-165.647508	422.491616	421.096143	-106.922121	92.157820	998.088707	-492.386081	162.288565	947.390094	-497.807026	189.764331	969.029327	-488.456050	198.903928	866.395526	-505.497166	273.682781	723.967766	-491.037946	306.392023	697.164472	-383.109829	221.925728	611.281371	-506.230150	191.890152	534.533708	-477.644004	124.572274	477.058987	-470.365789	216.759597	523.981964	-448.847235	36.989851	359.685423	-453.695888	38.060217	364.085334	-365.085390	-40.257585	378.694855	-407.885593	208.989263	204.387000	-416.394682	127.869933	211.731561	-475.635352	-185.940059	933.486525	-286.774645	-17.578318	79.185854	-485.457172	-17.542099	79.260125	-84.802206	
1501	7.5050	507.986889	1327.386858	-135.401021	532.325220	1303.380224	-393.820256	493.703004	1375.554429	-273.234672	457.775628	1219.553277	-277.787220	442.072907	1052.052129	17.509476	680.273177	926.397302	-100.072833	456.994160	1065.457745	-564.296523	680.902942	911.420166	-492.167431	-75.642855	1173.174243	-304.449838	86.321628	1175.953823	-456.795521	63.525220	1199.066313	-138.391741	123.975649	1130.776214	-407.859932	108.794704	1179.665727	-126.496427	-56.406677	1223.549606	-264.902267	-47.477383	1219.832236	-341.566087	29.534431	1152.031427	-116.876131	41.123306	1075.628904	-479.610244	166.922368	1066.512833	-109.301612	252.631766	1047.240179	-120.467094	317.159886	992.314114	-123.386788	265.509043	1077.358509	-139.388930	433.124506	906.168457	-149.933853	413.538850	879.594717	-260.869192	383.723350	794.836066	-120.846860	370.940080	704.427961	-129.729882	314.573320	639.103532	-131.269996	400.281499	694.144764	-152.298030	265.856366	494.606958	-129.046706	284.666399	499.627615	-214.547966	193.508729	462.577753	-165.166822	492.179003	433.364006	-165.328709	426.704750	411.874818	-106.779975	94.215308	998.563199	-492.132521	165.192016	949.048770	-497.648771	192.255553	971.085731	-487.953752	203.152388	868.721549	-505.658650	279.344614	728.282274	-491.221255	310.847932	701.592184	-382.825543	226.143429	617.178953	-506.464676	193.899416	541.244348	-477.465299	125.157748	485.392750	-470.103790	218.403412	530.198571	-448.472658	34.574613	370.507505	-453.278618	35.731680	374.834632	-364.560256	-42.347744	390.835613	-407.479187	203.583897	211.753347	-416.403000	122.549903	220.854055	-475.527791	-185.930492	933.378323	-286.918978	-17.582327	79.099521	-485.458861	-17.563179	79.258624	-84.813781	
1502	7.5100	508.251181	1326.967089	-135.229803	531.313160	1303.327791	-394.566139	493.311662	1375.049115	-273.821088	457.687677	1218.977449	-277.882695	441.405620	1051.593319	17.372835	679.997769	926.214104	-100.304980	456.245736	1065.012159	-564.364440	680.268363	911.364115	-492.431634	-76.430543	1170.897076	-304.773909	86.006390	1174.958923	-456.009859	63.464251	1196.625461	-137.486372	123.914620	1129.944734	-407.179858	108.694439	1177.769875	-125.885165	-57.160146	1221.311789	-264.172578	-47.867693	1217.896245	-341.271998	29.517038	1146.886939	-116.272657	42.115462	1074.870077	-479.772542	166.512211	1058.258826	-108.774831	251.871176	1037.359599	-120.042410	315.506084	981.751280	-123.515611	265.502835	1067.627017	-138.257779	429.012437	893.439497	-149.705406	409.760258	866.117318	-260.431706	380.706432	780.222897	-120.575671	369.283581	689.453324	-130.313402	314.544138	623.240717	-132.007878	399.128249	680.157640	-153.437621	268.177745	479.837910	-130.027090	286.775456	486.056452	-215.321329	196.376816	447.124459	-165.744798	495.694019	425.147278	-165.323453	430.662199	402.191910	-106.945326	96.070052	998.861136	-491.277204	167.927485	950.851920	-497.565264	194.594508	973.125726	-487.605452	207.221054	871.146132	-505.999215	284.750988	732.693479	-491.332983	315.905990	705.877113	-382.988330	229.876513	623.102414	-506.614750	195.854166	548.031011	-477.438619	125.608154	494.087006	-469.903586	220.048334	536.512271	-448.403855	32.563870	381.273413	-452.907514	33.701775	385.605481	-364.215126	-44.227842	403.244991	-406.896590	198.679117	219.702581	-416.686693	117.796062	230.269109	-475.558305	-185.945948	933.286441	-287.155244	-17.598810	78.992089	-485.540518	-17.568269	79.218432	-84.831436	
1503	7.5150	508.472695	1326.161733	-135.543803	530.430859	1303.313239	-395.280815	493.003293	1374.463366	-274.228638	457.516562	1218.373963	-278.330593	441.048078	1050.738791	17.069964	679.922398	925.994196	-100.731615	455.537512	1064.708040	-564.489546	679.703849	911.346768	-492.676444	-77.182527	1168.987466	-304.431776	85.612955	1173.984566	-455.305830	63.431625	1194.240162	-137.067817	123.850217	1129.345068	-406.555861	108.668955	1175.919782	-125.265871	-56.323462	1219.528060	-263.012601	-48.192494	1215.985179	-341.098015	29.692919	1141.853603	-115.607589	43.090961	1074.149869	-479.790767	166.135084	1050.410708	-108.285112	251.270035	1027.951935	-119.982200	313.681310	971.047547	-123.956203	265.907876	1059.254381	-135.750317	424.917524	880.887973	-150.536110	406.088887	854.035459	-260.329404	377.797941	768.435891	-120.361364	368.913002	677.388393	-130.448573	315.769350	609.901136	-132.372168	399.715713	669.360186	-153.636839	270.621242	465.959894	-130.533127	288.785075	472.898923	-215.986964	199.381347	432.570013	-166.281949	498.932316	416.072081	-165.346957	434.260044	392.060529	-107.144828	97.905331	999.607540	-491.319033	170.486840	952.663338	-497.559286	196.789250	975.310836	-487.409274	211.019639	873.676907	-506.378027	289.966200	737.057593	-491.400257	320.921692	710.017986	-383.241246	233.504425	629.166311	-506.934153	197.781390	554.873014	-477.403973	126.322337	502.551758	-469.725389	221.725563	542.914547	-448.502889	30.995878	391.944801	-452.572177	31.981196	396.478308	-363.936647	-45.452740	415.357411	-406.491493	194.403951	228.086082	-416.984296	113.623385	239.962961	-475.584902	-185.967215	933.212874	-287.311519	-17.602930	78.921262	-485.550192	-17.577970	79.188259	-84.837781	
1504	7.5200	508.758196	1324.751360	-136.338819	529.706064	1303.299152	-395.912918	492.805103	1373.839213	-274.632481	457.236585	1217.802158	-279.476828	440.771389	1049.884656	17.022389	680.064535	925.749963	-101.165372	454.952194	1064.510431	-564.628502	679.257503	911.373246	-492.883616	-78.308604	1168.096583	-304.620453	85.192281	1173.268568	-454.766161	63.586141	1191.828829	-136.220440	123.801385	1128.894597	-406.070563	108.721172	1174.154937	-124.643273	-56.694295	1217.149279	-261.933895	-48.710164	1214.110112	-340.521783	30.035623	1136.972793	-115.022402	43.997100	1073.672668	-479.783556	165.856923	1043.367348	-107.771226	250.433752	1019.389667	-119.284434	311.823411	961.242545	-124.336747	266.053112	1050.536802	-134.431819	421.224646	869.500240	-149.938864	402.430296	843.422551	-260.014685	375.025311	757.585607	-120.371059	368.125247	666.466705	-130.603067	316.553524	597.970324	-132.880541	399.124506	658.952427	-153.893470	272.873016	452.815901	-131.005245	291.617182	459.801077	-217.567706	201.808752	419.024384	-166.701965	501.868981	406.428306	-165.453025	437.326331	381.772938	-107.378765	99.651199	1000.486703	-491.543133	172.897595	954.608307	-497.684146	198.822421	977.593480	-487.414655	214.571434	876.301582	-506.923481	295.061679	741.515536	-491.452139	325.810371	714.291088	-383.459301	236.418363	635.119525	-506.749125	199.734539	561.781928	-477.504147	127.231745	510.831628	-469.526670	223.411807	549.374061	-448.607543	29.779552	402.709095	-452.217199	30.539066	407.754486	-363.845634	-46.455741	427.335102	-406.397743	190.834269	237.017080	-417.150904	110.123639	249.900632	-475.673725	-185.982857	933.113597	-287.370406	-17.612256	78.890418	-485.555929	-17.577944	79.182084	-84.867319	
1505	7.5250	509.090386	1323.607578	-136.628228	529.068798	1303.283333	-396.631199	492.720153	1373.228327	-274.973687	457.076992	1217.232477	-280.178565	440.891944	1048.727168	16.889748	680.308685	925.205418	-101.722539	454.469525	1064.391415	-564.815889	678.919828	911.432637	-493.216296	-78.242260	1166.020827	-304.747922	84.745477	1172.849398	-454.286442	63.915957	1189.769037	-135.346474	123.736347	1128.682176	-405.696894	108.852164	1172.510082	-124.021023	-57.050994	1214.891629	-260.645906	-50.245466	1212.936590	-338.875775	30.651688	1132.206384	-115.063862	44.867007	1073.450805	-479.750758	165.505026	1037.636048	-107.141117	249.427994	1011.674208	-118.576818	309.422058	951.857213	-124.703799	265.843409	1042.627895	-133.379327	417.524985	860.166849	-149.668183	398.161596	834.946332	-260.382168	372.591906	746.953873	-120.480448	367.122769	655.920134	-130.748537	316.418831	586.529511	-132.961582	398.041472	648.828749	-153.815325	274.956279	440.793257	-131.317080	292.994153	448.417472	-217.509000	203.814346	406.678860	-166.477183	504.366184	396.386701	-165.615558	439.937453	371.320652	-107.595684	101.212532	1001.670296	-491.805778	175.085737	956.713407	-497.928184	200.654632	980.053735	-487.579678	217.908783	879.063923	-507.546200	300.030062	746.163365	-491.522364	330.695810	718.734672	-383.751508	239.814918	641.430727	-507.036407	201.853571	568.876800	-477.600772	128.348665	519.269905	-469.448164	225.302938	556.043127	-448.715505	28.940925	413.372834	-451.991203	30.039827	418.363659	-363.476683	-47.062974	439.214059	-406.084380	187.929493	246.173743	-417.293804	107.312061	259.973238	-475.692176	-186.029979	933.039025	-287.430371	-17.595685	78.855086	-485.559436	-17.599043	79.195268	-84.864932	
